Coordinates
version=1
nRows=5
nColumns=40
inDegrees=yes

Units are S.I. units (second, meters, Newtons, ...)
If the header above contains a line with 'inDegrees', this indicates whether rotational values are in degrees (yes) or radians (no).

endheader
time	pelvis_tilt	pelvis_list	pelvis_rotation	pelvis_tx	pelvis_ty	pelvis_tz	hip_flexion_r	hip_adduction_r	hip_rotation_r	knee_angle_r	knee_angle_r_beta	ankle_angle_r	subtalar_angle_r	mtp_angle_r	hip_flexion_l	hip_adduction_l	hip_rotation_l	knee_angle_l	knee_angle_l_beta	ankle_angle_l	subtalar_angle_l	mtp_angle_l	lumbar_extension	lumbar_bending	lumbar_rotation	arm_flex_r	arm_add_r	arm_rot_r	elbow_flex_r	pro_sup_r	wrist_flex_r	wrist_dev_r	arm_flex_l	arm_add_l	arm_rot_l	elbow_flex_l	pro_sup_l	wrist_flex_l	wrist_dev_l
      4.13300000	      9.09263325	      5.45784997	     -9.12381015	      0.05269880	      1.31344962	      0.01704062	     41.99142687	    -23.52969474	    -11.89673161	     52.03158127	      0.90812241	     -5.76206224	    -13.51035407	      0.00000000	     41.33274725	    -23.06327817	     -9.03154942	     88.87221633	      1.55111279	     -6.69566579	     -0.10436809	      0.00000000	    -59.43375080	     -4.06322255	     -9.86083785	     58.65251125	    -13.48865238	    -15.54065219	     36.29873691	     87.08379789	      0.00000000	      0.00000000	     61.21712001	     -2.36356798	    -21.09923924	     47.69974339	     87.63252145	      0.00000000	      0.00000000
      4.15000000	      9.31032240	      6.52652872	     -7.86398315	      0.05193037	      1.31335149	      0.01689056	     36.83113847	    -24.20385870	    -14.85535043	     46.73727141	      0.81571927	     -8.43021320	    -13.41868046	      0.00000000	     46.06565328	    -22.26891848	     -6.27782125	     94.00845676	      1.64075710	     -5.41924108	      0.77110431	      0.00000000	    -59.33225344	     -4.03559597	    -11.12779896	     57.98533957	    -14.05890143	    -15.46873771	     36.36796839	     87.03616170	      0.00000000	      0.00000000	     61.22973191	     -1.92690648	    -20.74095731	     47.47854105	     87.63787410	      0.00000000	      0.00000000
      4.16700000	      9.20738109	      7.27253901	     -6.51643879	      0.05135080	      1.31298161	      0.01623836	     31.99954591	    -24.40890020	    -17.96095688	     42.06706228	      0.73420874	    -11.15649110	    -13.22112305	      0.00000000	     51.15514375	    -21.67018216	     -4.07882670	     97.76525247	      1.70632555	     -4.31393860	      1.77104957	      0.00000000	    -59.06725955	     -3.65701221	    -12.40173040	     57.54072311	    -14.12639663	    -15.65432613	     36.32170517	     87.03002490	      0.00000000	      0.00000000	     61.14153433	     -1.60548949	    -20.89177750	     47.41933268	     87.65765549	      0.00000000	      0.00000000
      4.18300000	      8.94391483	      7.79997606	     -5.24542868	      0.05102711	      1.31239421	      0.01541981	     27.49525344	    -24.18266800	    -21.02548475	     38.09297750	      0.66484788	    -13.86159660	    -13.03108810	      0.00000000	     56.34198337	    -21.18167016	     -2.51432597	    100.39434226	      1.75221182	     -3.27780733	      2.64904772	      0.00000000	    -58.69727697	     -3.16350560	    -13.58018551	     57.19868478	    -13.96116821	    -15.89861340	     36.17279037	     87.02322679	      0.00000000	      0.00000000	     60.96808891	     -1.34004812	    -21.29068903	     47.43008521	     87.64969592	      0.00000000	      0.00000000
      4.20000000	      8.67213386	      8.23429600	     -4.21547433	      0.05111742	      1.31171552	      0.01477556	     23.93222218	    -23.81941768	    -23.37973177	     35.56191952	      0.62067258	    -15.97780408	    -13.03418095	      0.00000000	     60.76368929	    -20.57831288	     -1.88823352	    101.80043498	      1.77675277	     -2.22942157	      3.10284876	      0.00000000	    -58.36848075	     -2.74102315	    -14.56172355	     56.98105068	    -13.82470915	    -16.02412904	     35.95817828	     87.05547618	      0.00000000	      0.00000000	     60.81929638	     -1.17540292	    -21.56633869	     47.37347876	     87.66775292	      0.00000000	      0.00000000
